<svg width="111" height="111" viewBox="0 0 111 111" fill="none" xmlns="http://www.w3.org/2000/svg">
<g clip-path="url(#clip0_2_86)">
<path d="M52.8545 104.827C81.5582 104.827 104.827 81.5582 104.827 52.8545C104.827 24.1508 81.5582 0.881836 52.8545 0.881836C24.1508 0.881836 0.881836 24.1508 0.881836 52.8545C0.881836 81.5582 24.1508 104.827 52.8545 104.827Z" fill="#FFC701"/>
<path d="M92.7837 18.2533C88.0318 12.7689 82.2012 8.32214 75.6552 5.1902C69.1092 2.05826 61.9882 0.308318 54.7362 0.0494541C47.4842 -0.20941 40.2565 1.02836 33.5039 3.6856C26.7513 6.34283 20.6184 10.3626 15.4876 15.4942C10.3568 20.6259 6.33807 26.7594 3.68195 33.5125C1.02583 40.2656 -0.21074 47.4934 0.0493242 54.7454C0.309388 61.9973 2.06051 69.118 5.19353 75.6635C8.32655 82.209 12.7743 88.0389 18.2595 92.7898C23.0114 98.2742 28.842 102.721 35.388 105.853C41.934 108.985 49.055 110.735 56.307 110.994C63.559 111.253 70.7866 110.015 77.5393 107.358C84.2919 104.7 90.4248 100.681 95.5556 95.5489C100.686 90.4173 104.705 84.2837 107.361 77.5307C110.017 70.7776 111.254 63.5498 110.994 56.2978C110.734 49.0458 108.983 41.9251 105.85 35.3797C102.717 28.8342 98.2689 23.0043 92.7837 18.2533V18.2533ZM52.8545 1.76983C62.9596 1.76983 72.8377 4.76641 81.2397 10.3806C89.6417 15.9948 96.1901 23.9745 100.057 33.3105C103.924 42.6465 104.935 52.9194 102.963 62.8303C100.991 72.7411 96.1248 81.8446 88.979 88.9895C81.8332 96.1344 72.7291 101 62.818 102.971C52.907 104.941 42.6341 103.929 33.2986 100.061C23.9631 96.1928 15.9842 89.6434 10.371 81.2407C4.75783 72.8381 1.76245 62.9596 1.76367 52.8545C1.77836 39.3094 7.16604 26.3235 16.7444 16.7462C26.3228 7.16901 39.3094 1.78289 52.8545 1.76983V1.76983Z" fill="black"/>
<path d="M43.9621 42.3897C43.8212 39.8722 42.7219 37.5043 40.8899 35.7719C39.0579 34.0396 36.6322 33.0743 34.1109 33.0743C31.5895 33.0743 29.1638 34.0396 27.3318 35.7719C25.4998 37.5043 24.4005 39.8722 24.2596 42.3897L22.496 42.2232C22.7709 39.3331 24.1133 36.6493 26.2611 34.6961C28.4089 32.7429 31.2078 31.6605 34.1109 31.6605C37.014 31.6605 39.8128 32.7429 41.9607 34.6961C44.1085 36.6493 45.4509 39.3331 45.7258 42.2232L43.9621 42.3897Z" fill="black"/>
<path d="M81.4555 42.3897C81.2591 39.9076 80.1345 37.5907 78.3058 35.901C76.477 34.2112 74.0787 33.2728 71.5888 33.2728C69.099 33.2728 66.7006 34.2112 64.8719 35.901C63.0432 37.5907 61.9185 39.9076 61.7222 42.3897L59.9647 42.2232C60.2318 39.3282 61.5707 36.6375 63.7188 34.6785C65.8669 32.7195 68.6693 31.6335 71.5765 31.6335C74.4837 31.6335 77.2861 32.7195 79.4342 34.6785C81.5823 36.6375 82.9212 39.3282 83.1883 42.2232L81.4555 42.3897Z" fill="black"/>
<path d="M52.8545 88.4115C43.9986 88.4127 35.4606 85.1115 28.9091 79.153C22.3576 73.1944 18.2635 65.0069 17.427 56.1907L19.1907 56.0242C19.9853 64.4029 23.8757 72.1842 30.1016 77.8475C36.3274 83.5108 44.4413 86.6491 52.8576 86.6491C61.2739 86.6491 69.3878 83.5108 75.6136 77.8475C81.8394 72.1842 85.7298 64.4029 86.5245 56.0242L88.282 56.1907C87.4455 65.0069 83.3514 73.1944 76.7999 79.153C70.2484 85.1115 61.7104 88.4127 52.8545 88.4115V88.4115Z" fill="black"/>
</g>
<defs>
<clipPath id="clip0_2_86">
<rect width="111" height="111" fill="white"/>
</clipPath>
</defs>
</svg>
