<svg width="111" height="111" viewBox="0 0 111 111" fill="none" xmlns="http://www.w3.org/2000/svg">
<g clip-path="url(#clip0_2_77)">
<path d="M52.8545 104.846C81.5684 104.846 104.846 81.5684 104.846 52.8545C104.846 24.1406 81.5684 0.863335 52.8545 0.863335C24.1406 0.863335 0.863342 24.1406 0.863342 52.8545C0.863342 81.5684 24.1406 104.846 52.8545 104.846Z" fill="#FFC701"/>
<path d="M92.7837 18.2595C88.0352 12.7654 82.2052 8.3091 75.6576 5.16879C69.1099 2.02848 61.9853 0.271589 54.7283 0.00778581C47.4714 -0.256018 40.2379 0.978932 33.4796 3.63554C26.7212 6.29215 20.583 10.3134 15.4482 15.4482C10.3134 20.583 6.29215 26.7212 3.63553 33.4796C0.978924 40.2379 -0.256025 47.4714 0.00777818 54.7283C0.271582 61.9853 2.02847 69.11 5.16878 75.6576C8.30909 82.2052 12.7654 88.0352 18.2595 92.7837C23.0116 98.264 28.8413 102.707 35.3855 105.836C41.9296 108.965 49.048 110.712 56.2971 110.97C63.5462 111.228 70.7707 109.99 77.5205 107.333C84.2703 104.677 90.4007 100.659 95.5299 95.5299C100.659 90.4007 104.677 84.2703 107.333 77.5205C109.99 70.7707 111.228 63.5462 110.97 56.2971C110.712 49.048 108.965 41.9296 105.836 35.3855C102.707 28.8413 98.264 23.0116 92.7837 18.2595V18.2595ZM52.8545 1.73283C62.9672 1.73161 72.853 4.72933 81.2619 10.3469C89.6708 15.9644 96.2249 23.9494 100.095 33.292C103.966 42.6347 104.979 52.9153 103.006 62.8337C101.034 72.7521 96.1642 81.8628 89.0135 89.0135C81.8628 96.1642 72.7521 101.034 62.8337 103.006C52.9153 104.979 42.6347 103.966 33.292 100.095C23.9494 96.2249 15.9644 89.6708 10.3469 81.2619C4.72932 72.8531 1.73161 62.9672 1.73283 52.8545C1.74915 39.3012 7.1404 26.3077 16.724 16.724C26.3077 7.14041 39.3012 1.74915 52.8545 1.73283V1.73283Z" fill="black"/>
<path d="M29.1745 47.6005L28.2557 46.1328L41.144 38.1038L28.2557 30.0687L29.1745 28.601L44.4185 38.1038L29.1745 47.6005Z" fill="black"/>
<path d="M76.5407 47.6005L61.2967 38.0915L76.5407 28.601L77.4595 30.0687L64.5712 38.0977L77.4595 46.1328L76.5407 47.6005Z" fill="black"/>
<path d="M88.3683 56.018L88.2758 56.9677C87.444 65.7853 83.353 73.9756 76.8028 79.9369C70.2526 85.8983 61.7143 89.2019 52.8575 89.2019C44.0008 89.2019 35.4625 85.8983 28.9123 79.9369C22.3621 73.9756 18.2711 65.7853 17.4393 56.9677L17.3468 56.018H88.3683Z" fill="black"/>
<path d="M78.884 58.3428H26.8373V67.5867H78.884V58.3428Z" fill="white"/>
</g>
<defs>
<clipPath id="clip0_2_77">
<rect width="111" height="111" fill="white"/>
</clipPath>
</defs>
</svg>
